<svg width="483" height="724" viewBox="0 0 483 724" fill="none" xmlns="http://www.w3.org/2000/svg">
<path d="M179.418 368C154.059 368.59 98.7406 378.969 80.3406 415.769C61.4688 446.436 54.8637 527.231 179.418 605.077C231.773 634.321 337.321 688.085 413.69 712.062C431.884 716.597 448.907 720.457 464.264 723.615C450.095 722.199 432.807 718.063 413.69 712.062C258.603 673.399 18.4602 585.651 0.725298 465.308C-5.17219 432.872 22.3098 368 179.418 368Z" fill="#FD0100"/>
<path fill-rule="evenodd" clip-rule="evenodd" d="M111.462 396.308L152.154 270.692C133.282 268.333 92.7077 263.615 81.3846 263.615H155.692L242.385 0L330.846 263.615H437L357.385 345L483 718.308L334.385 368L290.154 412.231C308.436 387.462 328.723 330.492 263.615 300.769C249.462 292.305 211.954 276.208 168.077 272.462L111.462 396.308ZM169.846 265.385L233.539 127.385L293.692 265.385H169.846Z" fill="#0004F3"/>
<path d="M127.385 532.538L277.769 385.691C216.908 456.461 276 498.922 313.154 511.307C347.123 526.876 440.538 535.486 483 537.845L127.385 532.538Z" fill="#0004F3"/>
<circle cx="214.077" cy="355.614" r="40.6923" fill="#FD0100"/>
</svg>
