<svg width="45" height="45" viewBox="0 0 45 45" fill="none" xmlns="http://www.w3.org/2000/svg">
<path d="M37.5273 12.4147C35.0189 8.67715 31.2078 6.00845 26.8377 4.92958C22.4676 3.85071 17.8523 4.4391 13.8927 6.5799C9.93315 8.72069 6.91344 12.2602 5.42306 16.5076C3.93269 20.755 4.07862 25.4053 5.83238 29.5509" stroke="#7171FF" stroke-width="1.85985"/>
<path d="M4.93577 29.9717L6.72405 29.1849C4.86422 24.7499 4.72117 14.8068 11.5168 9.29883C5.15036 13.0185 2.21754 24.1776 4.93577 29.9717Z" fill="#A5A5FF"/>
<path d="M7.25583 32.4C9.68389 36.1903 13.4373 38.9396 17.7833 40.1115C22.1294 41.2833 26.7562 40.7935 30.7605 38.7377C34.7649 36.6818 37.8594 33.2075 39.4401 28.9929C41.0207 24.7783 40.974 20.1259 39.3091 15.9438" stroke="#050F24" stroke-width="1.85985"/>
<path d="M13.5913 16.9532C14.9504 6.15178 32.762 15.451 40.2014 10.4437C38.1985 20.6729 20.6015 12.0175 13.5913 16.9532Z" fill="#5657FF"/>
<path d="M13.5913 16.9532C19.9577 9.87152 21.8891 15.7372 36.5533 14.9503C29.1139 17.6686 19.7431 13.0999 13.5913 16.9532Z" fill="#050F24"/>
<path d="M8.72705 25.6794C10.4438 12.875 28.8992 23.3188 36.3386 18.3115C34.3357 29.5421 16.381 19.5276 8.72705 25.6794Z" fill="#5657FF"/>
<path d="M8.72705 25.7019C13.9489 17.5249 18.3839 23.6052 31.9036 23.4621C24.6073 25.5366 15.0934 21.03 8.72705 25.7019Z" fill="#050F24"/>
<path d="M4.86426 35.8379C6.22338 20.1007 27.4685 31.4028 34.6933 26.6102C33.3342 38.9853 14.8073 26.2525 4.86426 35.8379Z" fill="#5657FF"/>
<path d="M4.86426 35.8375C9.29928 24.9645 18.0978 31.9747 32.3328 31.1878C28.1839 35.3367 12.7328 27.9689 4.86426 35.8375Z" fill="#050F24"/>
</svg>
